  0
SECTION
  2
HEADER
  9
$ACADVER
  1
AC1009
  9
$EXTMIN
 10
0.0
 20
0.0
 30
0.0
  9
$EXTMAX
 10
1000.0
 20
1000.0
 30
0.0
  9
$FILLMODE
 70
 0
  9
$SPLFRAME
 70
 1
  0
ENDSEC
  0
SECTION
  2
TABLES
  0
TABLE
  2
LAYER
 70
1
  0
LAYER
  2
0
 70
     0
 62
     7
  6
CONTINUOUS
  0
ENDTAB
  0
ENDSEC
  0
SECTION
  2
ENTITIES
  0
POLYLINE
  8
0
 62
     0
 66
     1
 10
0
 20
0
 30
0.0
 70
     1
 40
0
 41
0
  0
VERTEX
  8
0
 10
2.95529
 20
3.37056
 30
0.0
 40
0
 41
0
  0
VERTEX
  8
0
 10
2.95562
 20
3.37224
 30
0.0
 40
0
 41
0
  0
VERTEX
  8
0
 10
2.95731
 20
3.38633
 30
0.0
 40
0
 41
0
  0
VERTEX
  8
0
 10
2.95731
 20
3.391
 30
0.0
 40
0
 41
0
  0
VERTEX
  8
0
 10
2.95731
 20
3.4114
 30
0.0
 40
0
 41
0
  0
VERTEX
  8
0
 10
2.95731
 20
3.61496
 30
0.0
 40
0
 41
0
  0
VERTEX
  8
0
 10
2.95731
 20
3.63531
 30
0.0
 40
0
 41
0
  0
VERTEX
  8
0
 10
2.95731
 20
3.69635
 30
0.0
 40
0
 41
0
  0
VERTEX
  8
0
 10
2.95731
 20
3.70335
 30
0.0
 40
0
 41
0
  0
VERTEX
  8
0
 10
2.95344
 20
3.72433
 30
0.0
 40
0
 41
0
  0
VERTEX
  8
0
 10
2.94249
 20
3.74983
 30
0.0
 40
0
 41
0
  0
VERTEX
  8
0
 10
2.92518
 20
3.7716
 30
0.0
 40
0
 41
0
  0
VERTEX
  8
0
 10
2.90853
 20
3.78489
 30
0.0
 40
0
 41
0
  0
VERTEX
  8
0
 10
2.9024
 20
3.78814
 30
0.0
 40
0
 41
0
  0
VERTEX
  8
0
 10
2.87761
 20
3.80143
 30
0.0
 40
0
 41
0
  0
VERTEX
  8
0
 10
2.62929
 20
3.90462
 30
0.0
 40
0
 41
0
  0
VERTEX
  8
0
 10
2.60444
 20
3.91194
 30
0.0
 40
0
 41
0
  0
VERTEX
  8
0
 10
2.6096
 20
3.92421
 30
0.0
 40
0
 41
0
  0
VERTEX
  8
0
 10
2.62804
 20
3.98822
 30
0.0
 40
0
 41
0
  0
VERTEX
  8
0
 10
2.63612
 20
4.0485
 30
0.0
 40
0
 41
0
  0
VERTEX
  8
0
 10
2.63612
 20
4.06858
 30
0.0
 40
0
 41
0
  0
VERTEX
  8
0
 10
2.63612
 20
4.08892
 30
0.0
 40
0
 41
0
  0
VERTEX
  8
0
 10
2.62788
 20
4.14985
 30
0.0
 40
0
 41
0
  0
VERTEX
  8
0
 10
2.60433
 20
4.22558
 30
0.0
 40
0
 41
0
  0
VERTEX
  8
0
 10
2.56706
 20
4.29411
 30
0.0
 40
0
 41
0
  0
VERTEX
  8
0
 10
2.51774
 20
4.35389
 30
0.0
 40
0
 41
0
  0
VERTEX
  8
0
 10
2.45801
 20
4.40321
 30
0.0
 40
0
 41
0
  0
VERTEX
  8
0
 10
2.38943
 20
4.44049
 30
0.0
 40
0
 41
0
  0
VERTEX
  8
0
 10
2.31369
 20
4.46403
 30
0.0
 40
0
 41
0
  0
VERTEX
  8
0
 10
2.25276
 20
4.47222
 30
0.0
 40
0
 41
0
  0
VERTEX
  8
0
 10
2.23247
 20
4.47222
 30
0.0
 40
0
 41
0
  0
VERTEX
  8
0
 10
2.21212
 20
4.47222
 30
0.0
 40
0
 41
0
  0
VERTEX
  8
0
 10
2.15121
 20
4.46403
 30
0.0
 40
0
 41
0
  0
VERTEX
  8
0
 10
2.07547
 20
4.44049
 30
0.0
 40
0
 41
0
  0
VERTEX
  8
0
 10
2.00694
 20
4.40321
 30
0.0
 40
0
 41
0
  0
VERTEX
  8
0
 10
1.94715
 20
4.35389
 30
0.0
 40
0
 41
0
  0
VERTEX
  8
0
 10
1.89785
 20
4.29411
 30
0.0
 40
0
 41
0
  0
VERTEX
  8
0
 10
1.86057
 20
4.22558
 30
0.0
 40
0
 41
0
  0
VERTEX
  8
0
 10
1.83703
 20
4.14985
 30
0.0
 40
0
 41
0
  0
VERTEX
  8
0
 10
1.82883
 20
4.08892
 30
0.0
 40
0
 41
0
  0
VERTEX
  8
0
 10
1.82883
 20
4.06858
 30
0.0
 40
0
 41
0
  0
VERTEX
  8
0
 10
1.82883
 20
4.0485
 30
0.0
 40
0
 41
0
  0
VERTEX
  8
0
 10
1.83692
 20
3.98822
 30
0.0
 40
0
 41
0
  0
VERTEX
  8
0
 10
1.85536
 20
3.92421
 30
0.0
 40
0
 41
0
  0
VERTEX
  8
0
 10
1.86057
 20
3.91189
 30
0.0
 40
0
 41
0
  0
VERTEX
  8
0
 10
1.83567
 20
3.90457
 30
0.0
 40
0
 41
0
  0
VERTEX
  8
0
 10
1.58735
 20
3.80143
 30
0.0
 40
0
 41
0
  0
VERTEX
  8
0
 10
1.56261
 20
3.78814
 30
0.0
 40
0
 41
0
  0
VERTEX
  8
0
 10
1.55643
 20
3.78489
 30
0.0
 40
0
 41
0
  0
VERTEX
  8
0
 10
1.53971
 20
3.7716
 30
0.0
 40
0
 41
0
  0
VERTEX
  8
0
 10
1.5224
 20
3.74983
 30
0.0
 40
0
 41
0
  0
VERTEX
  8
0
 10
1.51144
 20
3.72433
 30
0.0
 40
0
 41
0
  0
VERTEX
  8
0
 10
1.50765
 20
3.70335
 30
0.0
 40
0
 41
0
  0
VERTEX
  8
0
 10
1.50765
 20
3.69635
 30
0.0
 40
0
 41
0
  0
VERTEX
  8
0
 10
1.50765
 20
3.6709
 30
0.0
 40
0
 41
0
  0
VERTEX
  8
0
 10
1.50765
 20
3.4165
 30
0.0
 40
0
 41
0
  0
VERTEX
  8
0
 10
1.50765
 20
3.39106
 30
0.0
 40
0
 41
0
  0
VERTEX
  8
0
 10
1.50765
 20
3.38596
 30
0.0
 40
0
 41
0
  0
VERTEX
  8
0
 10
1.50933
 20
3.37224
 30
0.0
 40
0
 41
0
  0
VERTEX
  8
0
 10
1.50971
 20
3.37056
 30
0.0
 40
0
 41
0
  0
VERTEX
  8
0
 10
1.4529
 20
3.34489
 30
0.0
 40
0
 41
0
  0
VERTEX
  8
0
 10
1.28982
 20
3.25157
 30
0.0
 40
0
 41
0
  0
VERTEX
  8
0
 10
1.09012
 20
3.10363
 30
0.0
 40
0
 41
0
  0
VERTEX
  8
0
 10
0.913357
 20
2.92958
 30
0.0
 40
0
 41
0
  0
VERTEX
  8
0
 10
0.762424
 20
2.73226
 30
0.0
 40
0
 41
0
  0
VERTEX
  8
0
 10
0.640082
 20
2.51443
 30
0.0
 40
0
 41
0
  0
VERTEX
  8
0
 10
0.549208
 20
2.27903
 30
0.0
 40
0
 41
0
  0
VERTEX
  8
0
 10
0.492622
 20
2.02881
 30
0.0
 40
0
 41
0
  0
VERTEX
  8
0
 10
0.473144
 20
1.83219
 30
0.0
 40
0
 41
0
  0
VERTEX
  8
0
 10
0.473144
 20
1.7666
 30
0.0
 40
0
 41
0
  0
VERTEX
  8
0
 10
0.473144
 20
1.72174
 30
0.0
 40
0
 41
0
  0
VERTEX
  8
0
 10
0.482206
 20
1.58703
 30
0.0
 40
0
 41
0
  0
VERTEX
  8
0
 10
0.508897
 20
1.41249
 30
0.0
 40
0
 41
0
  0
VERTEX
  8
0
 10
0.552354
 20
1.24403
 30
0.0
 40
0
 41
0
  0
VERTEX
  8
0
 10
0.6116
 20
1.08247
 30
0.0
 40
0
 41
0
  0
VERTEX
  8
0
 10
0.685764
 20
0.928711
 30
0.0
 40
0
 41
0
  0
VERTEX
  8
0
 10
0.773981
 20
0.783638
 30
0.0
 40
0
 41
0
  0
VERTEX
  8
0
 10
0.875379
 20
0.648167
 30
0.0
 40
0
 41
0
  0
VERTEX
  8
0
 10
0.988986
 20
0.523167
 30
0.0
 40
0
 41
0
  0
VERTEX
  8
0
 10
1.11399
 20
0.409506
 30
0.0
 40
0
 41
0
  0
VERTEX
  8
0
 10
1.24946
 20
0.30816
 30
0.0
 40
0
 41
0
  0
VERTEX
  8
0
 10
1.39453
 20
0.219889
 30
0.0
 40
0
 41
0
  0
VERTEX
  8
0
 10
1.54829
 20
0.145725
 30
0.0
 40
0
 41
0
  0
VERTEX
  8
0
 10
1.70985
 20
0.08648
 30
0.0
 40
0
 41
0
  0
VERTEX
  8
0
 10
1.87831
 20
0.0430772
 30
0.0
 40
0
 41
0
  0
VERTEX
  8
0
 10
2.05285
 20
0.0163303
 30
0.0
 40
0
 41
0
  0
VERTEX
  8
0
 10
2.18756
 20
0.00721571
 30
0.0
 40
0
 41
0
  0
VERTEX
  8
0
 10
2.23247
 20
0.00721571
 30
0.0
 40
0
 41
0
  0
VERTEX
  8
0
 10
2.27735
 20
0.00721571
 30
0.0
 40
0
 41
0
  0
VERTEX
  8
0
 10
2.41206
 20
0.0163303
 30
0.0
 40
0
 41
0
  0
VERTEX
  8
0
 10
2.58658
 20
0.0430772
 30
0.0
 40
0
 41
0
  0
VERTEX
  8
0
 10
2.75504
 20
0.08648
 30
0.0
 40
0
 41
0
  0
VERTEX
  8
0
 10
2.91661
 20
0.145725
 30
0.0
 40
0
 41
0
  0
VERTEX
  8
0
 10
3.07036
 20
0.219889
 30
0.0
 40
0
 41
0
  0
VERTEX
  8
0
 10
3.21544
 20
0.30816
 30
0.0
 40
0
 41
0
  0
VERTEX
  8
0
 10
3.35092
 20
0.409506
 30
0.0
 40
0
 41
0
  0
VERTEX
  8
0
 10
3.47592
 20
0.523167
 30
0.0
 40
0
 41
0
  0
VERTEX
  8
0
 10
3.58957
 20
0.648167
 30
0.0
 40
0
 41
0
  0
VERTEX
  8
0
 10
3.69092
 20
0.783638
 30
0.0
 40
0
 41
0
  0
VERTEX
  8
0
 10
3.77919
 20
0.928711
 30
0.0
 40
0
 41
0
  0
VERTEX
  8
0
 10
3.85335
 20
1.08247
 30
0.0
 40
0
 41
0
  0
VERTEX
  8
0
 10
3.9126
 20
1.24403
 30
0.0
 40
0
 41
0
  0
VERTEX
  8
0
 10
3.956
 20
1.41249
 30
0.0
 40
0
 41
0
  0
VERTEX
  8
0
 10
3.98275
 20
1.58703
 30
0.0
 40
0
 41
0
  0
VERTEX
  8
0
 10
3.99186
 20
1.72174
 30
0.0
 40
0
 41
0
  0
VERTEX
  8
0
 10
3.99186
 20
1.7666
 30
0.0
 40
0
 41
0
  0
VERTEX
  8
0
 10
3.99186
 20
1.83219
 30
0.0
 40
0
 41
0
  0
VERTEX
  8
0
 10
3.97233
 20
2.02881
 30
0.0
 40
0
 41
0
  0
VERTEX
  8
0
 10
3.91575
 20
2.27903
 30
0.0
 40
0
 41
0
  0
VERTEX
  8
0
 10
3.82487
 20
2.51443
 30
0.0
 40
0
 41
0
  0
VERTEX
  8
0
 10
3.70253
 20
2.73226
 30
0.0
 40
0
 41
0
  0
VERTEX
  8
0
 10
3.5516
 20
2.92958
 30
0.0
 40
0
 41
0
  0
VERTEX
  8
0
 10
3.37483
 20
3.10363
 30
0.0
 40
0
 41
0
  0
VERTEX
  8
0
 10
3.17512
 20
3.25157
 30
0.0
 40
0
 41
0
  0
VERTEX
  8
0
 10
3.01204
 20
3.34489
 30
0.0
 40
0
 41
0
  0
VERTEX
  8
0
 10
2.95529
 20
3.37056
 30
0.0
 40
0
 41
0
  0
SEQEND
 8
0
  0
POLYLINE
  8
0
 62
     0
 66
     1
 10
0
 20
0
 30
0.0
 70
     1
 40
0
 41
0
  0
VERTEX
  8
0
 10
2.23247
 20
4.26389
 30
0.0
 40
0
 41
0
  0
VERTEX
  8
0
 10
2.24229
 20
4.26389
 30
0.0
 40
0
 41
0
  0
VERTEX
  8
0
 10
2.27175
 20
4.25993
 30
0.0
 40
0
 41
0
  0
VERTEX
  8
0
 10
2.30843
 20
4.24854
 30
0.0
 40
0
 41
0
  0
VERTEX
  8
0
 10
2.34158
 20
4.23053
 30
0.0
 40
0
 41
0
  0
VERTEX
  8
0
 10
2.3705
 20
4.20665
 30
0.0
 40
0
 41
0
  0
VERTEX
  8
0
 10
2.39438
 20
4.17774
 30
0.0
 40
0
 41
0
  0
VERTEX
  8
0
 10
2.41237
 20
4.14453
 30
0.0
 40
0
 41
0
  0
VERTEX
  8
0
 10
2.42378
 20
4.10792
 30
0.0
 40
0
 41
0
  0
VERTEX
  8
0
 10
2.42779
 20
4.07844
 30
0.0
 40
0
 41
0
  0
VERTEX
  8
0
 10
2.42779
 20
4.06858
 30
0.0
 40
0
 41
0
  0
VERTEX
  8
0
 10
2.42779
 20
4.05561
 30
0.0
 40
0
 41
0
  0
VERTEX
  8
0
 10
2.42074
 20
4.01665
 30
0.0
 40
0
 41
0
  0
VERTEX
  8
0
 10
2.40483
 20
3.97629
 30
0.0
 40
0
 41
0
  0
VERTEX
  8
0
 10
2.40039
 20
3.96881
 30
0.0
 40
0
 41
0
  0
VERTEX
  8
0
 10
2.06461
 20
3.96881
 30
0.0
 40
0
 41
0
  0
VERTEX
  8
0
 10
2.06011
 20
3.97629
 30
0.0
 40
0
 41
0
  0
VERTEX
  8
0
 10
2.04422
 20
4.01665
 30
0.0
 40
0
 41
0
  0
VERTEX
  8
0
 10
2.03722
 20
4.05561
 30
0.0
 40
0
 41
0
  0
VERTEX
  8
0
 10
2.03722
 20
4.06858
 30
0.0
 40
0
 41
0
  0
VERTEX
  8
0
 10
2.03722
 20
4.0784
 30
0.0
 40
0
 41
0
  0
VERTEX
  8
0
 10
2.04112
 20
4.10792
 30
0.0
 40
0
 41
0
  0
VERTEX
  8
0
 10
2.05251
 20
4.14453
 30
0.0
 40
0
 41
0
  0
VERTEX
  8
0
 10
2.07053
 20
4.17774
 30
0.0
 40
0
 41
0
  0
VERTEX
  8
0
 10
2.0944
 20
4.20665
 30
0.0
 40
0
 41
0
  0
VERTEX
  8
0
 10
2.12332
 20
4.23053
 30
0.0
 40
0
 41
0
  0
VERTEX
  8
0
 10
2.15653
 20
4.24854
 30
0.0
 40
0
 41
0
  0
VERTEX
  8
0
 10
2.19314
 20
4.25993
 30
0.0
 40
0
 41
0
  0
VERTEX
  8
0
 10
2.2226
 20
4.26389
 30
0.0
 40
0
 41
0
  0
VERTEX
  8
0
 10
2.23247
 20
4.26389
 30
0.0
 40
0
 41
0
  0
SEQEND
 8
0
  0
POLYLINE
  8
0
 62
     0
 66
     1
 10
0
 20
0
 30
0.0
 70
     1
 40
0
 41
0
  0
VERTEX
  8
0
 10
1.71604
 20
3.63265
 30
0.0
 40
0
 41
0
  0
VERTEX
  8
0
 10
1.77772
 20
3.66265
 30
0.0
 40
0
 41
0
  0
VERTEX
  8
0
 10
1.97504
 20
3.7276
 30
0.0
 40
0
 41
0
  0
VERTEX
  8
0
 10
2.23253
 20
3.75928
 30
0.0
 40
0
 41
0
  0
VERTEX
  8
0
 10
2.49001
 20
3.7276
 30
0.0
 40
0
 41
0
  0
VERTEX
  8
0
 10
2.68733
 20
3.66265
 30
0.0
 40
0
 41
0
  0
VERTEX
  8
0
 10
2.74903
 20
3.63265
 30
0.0
 40
0
 41
0
  0
VERTEX
  8
0
 10
2.74903
 20
3.58664
 30
0.0
 40
0
 41
0
  0
VERTEX
  8
0
 10
2.74897
 20
3.46386
 30
0.0
 40
0
 41
0
  0
VERTEX
  8
0
 10
2.74897
 20
3.44851
 30
0.0
 40
0
 41
0
  0
VERTEX
  8
0
 10
2.70811
 20
3.4611
 30
0.0
 40
0
 41
0
  0
VERTEX
  8
0
 10
2.49681
 20
3.50612
 30
0.0
 40
0
 41
0
  0
VERTEX
  8
0
 10
2.29856
 20
3.52593
 30
0.0
 40
0
 41
0
  0
VERTEX
  8
0
 10
2.23247
 20
3.52593
 30
0.0
 40
0
 41
0
  0
VERTEX
  8
0
 10
2.16635
 20
3.52593
 30
0.0
 40
0
 41
0
  0
VERTEX
  8
0
 10
1.9681
 20
3.50612
 30
0.0
 40
0
 41
0
  0
VERTEX
  8
0
 10
1.75683
 20
3.4611
 30
0.0
 40
0
 41
0
  0
VERTEX
  8
0
 10
1.71599
 20
3.44851
 30
0.0
 40
0
 41
0
  0
VERTEX
  8
0
 10
1.71599
 20
3.46386
 30
0.0
 40
0
 41
0
  0
VERTEX
  8
0
 10
1.71604
 20
3.5905
 30
0.0
 40
0
 41
0
  0
VERTEX
  8
0
 10
1.71604
 20
3.63265
 30
0.0
 40
0
 41
0
  0
SEQEND
 8
0
  0
POLYLINE
  8
0
 62
     0
 66
     1
 10
0
 20
0
 30
0.0
 70
     1
 40
0
 41
0
  0
VERTEX
  8
0
 10
2.23247
 20
3.3176
 30
0.0
 40
0
 41
0
  0
VERTEX
  8
0
 10
2.27832
 20
3.3176
 30
0.0
 40
0
 41
0
  0
VERTEX
  8
0
 10
2.41596
 20
3.30686
 30
0.0
 40
0
 41
0
  0
VERTEX
  8
0
 10
2.59321
 20
3.27528
 30
0.0
 40
0
 41
0
  0
VERTEX
  8
0
 10
2.76292
 20
3.22418
 30
0.0
 40
0
 41
0
  0
VERTEX
  8
0
 10
2.92393
 20
3.15479
 30
0.0
 40
0
 41
0
  0
VERTEX
  8
0
 10
3.07493
 20
3.06831
 30
0.0
 40
0
 41
0
  0
VERTEX
  8
0
 10
3.21479
 20
2.96599
 30
0.0
 40
0
 41
0
  0
VERTEX
  8
0
 10
3.34218
 20
2.84907
 30
0.0
 40
0
 41
0
  0
VERTEX
  8
0
 10
3.42936
 20
2.75282
 30
0.0
 40
0
 41
0
  0
VERTEX
  8
0
 10
3.45594
 20
2.71875
 30
0.0
 40
0
 41
0
  0
VERTEX
  8
0
 10
3.44243
 20
2.71408
 30
0.0
 40
0
 41
0
  0
VERTEX
  8
0
 10
3.40354
 20
2.69553
 30
0.0
 40
0
 41
0
  0
VERTEX
  8
0
 10
3.3591
 20
2.66749
 30
0.0
 40
0
 41
0
  0
VERTEX
  8
0
 10
3.32129
 20
2.63732
 30
0.0
 40
0
 41
0
  0
VERTEX
  8
0
 10
3.29671
 20
2.61535
 30
0.0
 40
0
 41
0
  0
VERTEX
  8
0
 10
3.28868
 20
2.60786
 30
0.0
 40
0
 41
0
  0
VERTEX
  8
0
 10
3.27983
 20
2.59972
 30
0.0
 40
0
 41
0
  0
VERTEX
  8
0
 10
3.25282
 20
2.57579
 30
0.0
 40
0
 41
0
  0
VERTEX
  8
0
 10
3.21897
 20
2.55176
 30
0.0
 40
0
 41
0
  0
VERTEX
  8
0
 10
3.18126
 20
2.53662
 30
0.0
 40
0
 41
0
  0
VERTEX
  8
0
 10
3.14578
 20
2.53136
 30
0.0
 40
0
 41
0
  0
VERTEX
  8
0
 10
3.134
 20
2.53136
 30
0.0
 40
0
 41
0
  0
VERTEX
  8
0
 10
3.12218
 20
2.53136
 30
0.0
 40
0
 41
0
  0
VERTEX
  8
0
 10
3.08669
 20
2.53662
 30
0.0
 40
0
 41
0
  0
VERTEX
  8
0
 10
3.04899
 20
2.55176
 30
0.0
 40
0
 41
0
  0
VERTEX
  8
0
 10
3.01508
 20
2.57579
 30
0.0
 40
0
 41
0
  0
VERTEX
  8
0
 10
2.98807
 20
2.59972
 30
0.0
 40
0
 41
0
  0
VERTEX
  8
0
 10
2.97928
 20
2.60786
 30
0.0
 40
0
 41
0
  0
VERTEX
  8
0
 10
2.96701
 20
2.61919
 30
0.0
 40
0
 41
0
  0
VERTEX
  8
0
 10
2.92919
 20
2.65196
 30
0.0
 40
0
 41
0
  0
VERTEX
  8
0
 10
2.86621
 20
2.69467
 30
0.0
 40
0
 41
0
  0
VERTEX
  8
0
 10
2.78569
 20
2.72694
 30
0.0
 40
0
 41
0
  0
VERTEX
  8
0
 10
2.70876
 20
2.73969
 30
0.0
 40
0
 41
0
  0
VERTEX
  8
0
 10
2.68317
 20
2.73969
 30
0.0
 40
0
 41
0
  0
VERTEX
  8
0
 10
2.6575
 20
2.73969
 30
0.0
 40
0
 41
0
  0
VERTEX
  8
0
 10
2.58057
 20
2.72694
 30
0.0
 40
0
 41
0
  0
VERTEX
  8
0
 10
2.50011
 20
2.69467
 30
0.0
 40
0
 41
0
  0
VERTEX
  8
0
 10
2.43713
 20
2.65196
 30
0.0
 40
0
 41
0
  0
VERTEX
  8
0
 10
2.39931
 20
2.61919
 30
0.0
 40
0
 41
0
  0
VERTEX
  8
0
 10
2.3871
 20
2.60786
 30
0.0
 40
0
 41
0
  0
VERTEX
  8
0
 10
2.37825
 20
2.59972
 30
0.0
 40
0
 41
0
  0
VERTEX
  8
0
 10
2.35124
 20
2.57579
 30
0.0
 40
0
 41
0
  0
VERTEX
  8
0
 10
2.31739
 20
2.55176
 30
0.0
 40
0
 41
0
  0
VERTEX
  8
0
 10
2.27968
 20
2.53662
 30
0.0
 40
0
 41
0
  0
VERTEX
  8
0
 10
2.24419
 20
2.53136
 30
0.0
 40
0
 41
0
  0
VERTEX
  8
0
 10
2.23242
 20
2.53136
 30
0.0
 40
0
 41
0
  0
VERTEX
  8
0
 10
2.2206
 20
2.53136
 30
0.0
 40
0
 41
0
  0
VERTEX
  8
0
 10
2.18511
 20
2.53662
 30
0.0
 40
0
 41
0
  0
VERTEX
  8
0
 10
2.1474
 20
2.55176
 30
0.0
 40
0
 41
0
  0
VERTEX
  8
0
 10
2.11356
 20
2.57579
 30
0.0
 40
0
 41
0
  0
VERTEX
  8
0
 10
2.08653
 20
2.59972
 30
0.0
 40
0
 41
0
  0
VERTEX
  8
0
 10
2.07775
 20
2.60786
 30
0.0
 40
0
 41
0
  0
VERTEX
  8
0
 10
2.06549
 20
2.61919
 30
0.0
 40
0
 41
0
  0
VERTEX
  8
0
 10
2.02761
 20
2.65196
 30
0.0
 40
0
 41
0
  0
VERTEX
  8
0
 10
1.96463
 20
2.69467
 30
0.0
 40
0
 41
0
  0
VERTEX
  8
0
 10
1.88417
 20
2.72694
 30
0.0
 40
0
 41
0
  0
VERTEX
  8
0
 10
1.80724
 20
2.73969
 30
0.0
 40
0
 41
0
  0
VERTEX
  8
0
 10
1.78162
 20
2.73969
 30
0.0
 40
0
 41
0
  0
VERTEX
  8
0
 10
1.75597
 20
2.73969
 30
0.0
 40
0
 41
0
  0
VERTEX
  8
0
 10
1.6791
 20
2.72694
 30
0.0
 40
0
 41
0
  0
VERTEX
  8
0
 10
1.59858
 20
2.69467
 30
0.0
 40
0
 41
0
  0
VERTEX
  8
0
 10
1.5356
 20
2.65196
 30
0.0
 40
0
 41
0
  0
VERTEX
  8
0
 10
1.49778
 20
2.61919
 30
0.0
 40
0
 41
0
  0
VERTEX
  8
0
 10
1.48557
 20
2.60786
 30
0.0
 40
0
 41
0
  0
VERTEX
  8
0
 10
1.47672
 20
2.59972
 30
0.0
 40
0
 41
0
  0
VERTEX
  8
0
 10
1.44971
 20
2.57579
 30
0.0
 40
0
 41
0
  0
VERTEX
  8
0
 10
1.41585
 20
2.55176
 30
0.0
 40
0
 41
0
  0
VERTEX
  8
0
 10
1.37815
 20
2.53662
 30
0.0
 40
0
 41
0
  0
VERTEX
  8
0
 10
1.34267
 20
2.53136
 30
0.0
 40
0
 41
0
  0
VERTEX
  8
0
 10
1.33089
 20
2.53136
 30
0.0
 40
0
 41
0
  0
VERTEX
  8
0
 10
1.31907
 20
2.53136
 30
0.0
 40
0
 41
0
  0
VERTEX
  8
0
 10
1.28364
 20
2.53662
 30
0.0
 40
0
 41
0
  0
VERTEX
  8
0
 10
1.24593
 20
2.55176
 30
0.0
 40
0
 41
0
  0
VERTEX
  8
0
 10
1.21202
 20
2.57579
 30
0.0
 40
0
 41
0
  0
VERTEX
  8
0
 10
1.185
 20
2.59972
 30
0.0
 40
0
 41
0
  0
VERTEX
  8
0
 10
1.17622
 20
2.60786
 30
0.0
 40
0
 41
0
  0
VERTEX
  8
0
 10
1.16813
 20
2.61535
 30
0.0
 40
0
 41
0
  0
VERTEX
  8
0
 10
1.14361
 20
2.63732
 30
0.0
 40
0
 41
0
  0
VERTEX
  8
0
 10
1.10579
 20
2.66749
 30
0.0
 40
0
 41
0
  0
VERTEX
  8
0
 10
1.06136
 20
2.69553
 30
0.0
 40
0
 41
0
  0
VERTEX
  8
0
 10
1.02246
 20
2.71408
 30
0.0
 40
0
 41
0
  0
VERTEX
  8
0
 10
1.00901
 20
2.71875
 30
0.0
 40
0
 41
0
  0
VERTEX
  8
0
 10
1.03554
 20
2.75282
 30
0.0
 40
0
 41
0
  0
VERTEX
  8
0
 10
1.12272
 20
2.84907
 30
0.0
 40
0
 41
0
  0
VERTEX
  8
0
 10
1.25016
 20
2.96599
 30
0.0
 40
0
 41
0
  0
VERTEX
  8
0
 10
1.38997
 20
3.06831
 30
0.0
 40
0
 41
0
  0
VERTEX
  8
0
 10
1.54101
 20
3.15479
 30
0.0
 40
0
 41
0
  0
VERTEX
  8
0
 10
1.70199
 20
3.22418
 30
0.0
 40
0
 41
0
  0
VERTEX
  8
0
 10
1.87175
 20
3.27528
 30
0.0
 40
0
 41
0
  0
VERTEX
  8
0
 10
2.04893
 20
3.30686
 30
0.0
 40
0
 41
0
  0
VERTEX
  8
0
 10
2.18658
 20
3.3176
 30
0.0
 40
0
 41
0
  0
VERTEX
  8
0
 10
2.23247
 20
3.3176
 30
0.0
 40
0
 41
0
  0
SEQEND
 8
0
  0
POLYLINE
  8
0
 62
     0
 66
     1
 10
0
 20
0
 30
0.0
 70
     1
 40
0
 41
0
  0
VERTEX
  8
0
 10
0.883518
 20
2.53131
 30
0.0
 40
0
 41
0
  0
VERTEX
  8
0
 10
0.894965
 20
2.53119
 30
0.0
 40
0
 41
0
  0
VERTEX
  8
0
 10
0.929308
 20
2.52561
 30
0.0
 40
0
 41
0
  0
VERTEX
  8
0
 10
0.966146
 20
2.51036
 30
0.0
 40
0
 41
0
  0
VERTEX
  8
0
 10
0.999511
 20
2.48654
 30
0.0
 40
0
 41
0
  0
VERTEX
  8
0
 10
1.0261
 20
2.463
 30
0.0
 40
0
 41
0
  0
VERTEX
  8
0
 10
1.03483
 20
2.45492
 30
0.0
 40
0
 41
0
  0
VERTEX
  8
0
 10
1.04704
 20
2.44362
 30
0.0
 40
0
 41
0
  0
VERTEX
  8
0
 10
1.08491
 20
2.41086
 30
0.0
 40
0
 41
0
  0
VERTEX
  8
0
 10
1.14789
 20
2.36817
 30
0.0
 40
0
 41
0
  0
VERTEX
  8
0
 10
1.22835
 20
2.33589
 30
0.0
 40
0
 41
0
  0
VERTEX
  8
0
 10
1.30523
 20
2.32308
 30
0.0
 40
0
 41
0
  0
VERTEX
  8
0
 10
1.33089
 20
2.32308
 30
0.0
 40
0
 41
0
  0
VERTEX
  8
0
 10
1.3565
 20
2.32308
 30
0.0
 40
0
 41
0
  0
VERTEX
  8
0
 10
1.43343
 20
2.33589
 30
0.0
 40
0
 41
0
  0
VERTEX
  8
0
 10
1.51389
 20
2.36817
 30
0.0
 40
0
 41
0
  0
VERTEX
  8
0
 10
1.57688
 20
2.41086
 30
0.0
 40
0
 41
0
  0
VERTEX
  8
0
 10
1.61475
 20
2.44362
 30
0.0
 40
0
 41
0
  0
VERTEX
  8
0
 10
1.62701
 20
2.45492
 30
0.0
 40
0
 41
0
  0
VERTEX
  8
0
 10
1.63579
 20
2.46311
 30
0.0
 40
0
 41
0
  0
VERTEX
  8
0
 10
1.66282
 20
2.48703
 30
0.0
 40
0
 41
0
  0
VERTEX
  8
0
 10
1.69667
 20
2.51107
 30
0.0
 40
0
 41
0
  0
VERTEX
  8
0
 10
1.73438
 20
2.52621
 30
0.0
 40
0
 41
0
  0
VERTEX
  8
0
 10
1.76986
 20
2.53142
 30
0.0
 40
0
 41
0
  0
VERTEX
  8
0
 10
1.78168
 20
2.53142
 30
0.0
 40
0
 41
0
  0
VERTEX
  8
0
 10
1.79346
 20
2.53142
 30
0.0
 40
0
 41
0
  0
VERTEX
  8
0
 10
1.82889
 20
2.52621
 30
0.0
 40
0
 41
0
  0
VERTEX
  8
0
 10
1.8666
 20
2.51107
 30
0.0
 40
0
 41
0
  0
VERTEX
  8
0
 10
1.9005
 20
2.48703
 30
0.0
 40
0
 41
0
  0
VERTEX
  8
0
 10
1.92751
 20
2.46311
 30
0.0
 40
0
 41
0
  0
VERTEX
  8
0
 10
1.93636
 20
2.45492
 30
0.0
 40
0
 41
0
  0
VERTEX
  8
0
 10
1.94857
 20
2.44362
 30
0.0
 40
0
 41
0
  0
VERTEX
  8
0
 10
1.98639
 20
2.41086
 30
0.0
 40
0
 41
0
  0
VERTEX
  8
0
 10
2.04937
 20
2.36817
 30
0.0
 40
0
 41
0
  0
VERTEX
  8
0
 10
2.12989
 20
2.33589
 30
0.0
 40
0
 41
0
  0
VERTEX
  8
0
 10
2.20676
 20
2.32308
 30
0.0
 40
0
 41
0
  0
VERTEX
  8
0
 10
2.23242
 20
2.32308
 30
0.0
 40
0
 41
0
  0
VERTEX
  8
0
 10
2.25803
 20
2.32308
 30
0.0
 40
0
 41
0
  0
VERTEX
  8
0
 10
2.33496
 20
2.33589
 30
0.0
 40
0
 41
0
  0
VERTEX
  8
0
 10
2.41542
 20
2.36817
 30
0.0
 40
0
 41
0
  0
VERTEX
  8
0
 10
2.4784
 20
2.41086
 30
0.0
 40
0
 41
0
  0
VERTEX
  8
0
 10
2.51628
 20
2.44362
 30
0.0
 40
0
 41
0
  0
VERTEX
  8
0
 10
2.52854
 20
2.45492
 30
0.0
 40
0
 41
0
  0
VERTEX
  8
0
 10
2.53733
 20
2.46311
 30
0.0
 40
0
 41
0
  0
VERTEX
  8
0
 10
2.56435
 20
2.48703
 30
0.0
 40
0
 41
0
  0
VERTEX
  8
0
 10
2.59819
 20
2.51107
 30
0.0
 40
0
 41
0
  0
VERTEX
  8
0
 10
2.6359
 20
2.52621
 30
0.0
 40
0
 41
0
  0
VERTEX
  8
0
 10
2.67139
 20
2.53142
 30
0.0
 40
0
 41
0
  0
VERTEX
  8
0
 10
2.68321
 20
2.53142
 30
0.0
 40
0
 41
0
  0
VERTEX
  8
0
 10
2.69499
 20
2.53142
 30
0.0
 40
0
 41
0
  0
VERTEX
  8
0
 10
2.73042
 20
2.52621
 30
0.0
 40
0
 41
0
  0
VERTEX
  8
0
 10
2.76812
 20
2.51107
 30
0.0
 40
0
 41
0
  0
VERTEX
  8
0
 10
2.80203
 20
2.48703
 30
0.0
 40
0
 41
0
  0
VERTEX
  8
0
 10
2.82904
 20
2.46311
 30
0.0
 40
0
 41
0
  0
VERTEX
  8
0
 10
2.83789
 20
2.45492
 30
0.0
 40
0
 41
0
  0
VERTEX
  8
0
 10
2.8501
 20
2.44362
 30
0.0
 40
0
 41
0
  0
VERTEX
  8
0
 10
2.88797
 20
2.41086
 30
0.0
 40
0
 41
0
  0
VERTEX
  8
0
 10
2.95096
 20
2.36817
 30
0.0
 40
0
 41
0
  0
VERTEX
  8
0
 10
3.03147
 20
2.33589
 30
0.0
 40
0
 41
0
  0
VERTEX
  8
0
 10
3.10835
 20
2.32308
 30
0.0
 40
0
 41
0
  0
VERTEX
  8
0
 10
3.134
 20
2.32308
 30
0.0
 40
0
 41
0
  0
VERTEX
  8
0
 10
3.15961
 20
2.32308
 30
0.0
 40
0
 41
0
  0
VERTEX
  8
0
 10
3.23654
 20
2.33589
 30
0.0
 40
0
 41
0
  0
VERTEX
  8
0
 10
3.317
 20
2.36817
 30
0.0
 40
0
 41
0
  0
VERTEX
  8
0
 10
3.37999
 20
2.41086
 30
0.0
 40
0
 41
0
  0
VERTEX
  8
0
 10
3.41786
 20
2.44362
 30
0.0
 40
0
 41
0
  0
VERTEX
  8
0
 10
3.43012
 20
2.45492
 30
0.0
 40
0
 41
0
  0
VERTEX
  8
0
 10
3.43881
 20
2.46294
 30
0.0
 40
0
 41
0
  0
VERTEX
  8
0
 10
3.46539
 20
2.48654
 30
0.0
 40
0
 41
0
  0
VERTEX
  8
0
 10
3.49875
 20
2.51036
 30
0.0
 40
0
 41
0
  0
VERTEX
  8
0
 10
3.53564
 20
2.52561
 30
0.0
 40
0
 41
0
  0
VERTEX
  8
0
 10
3.56999
 20
2.53119
 30
0.0
 40
0
 41
0
  0
VERTEX
  8
0
 10
3.58149
 20
2.53131
 30
0.0
 40
0
 41
0
  0
VERTEX
  8
0
 10
3.60558
 20
2.48893
 30
0.0
 40
0
 41
0
  0
VERTEX
  8
0
 10
3.66726
 20
2.35562
 30
0.0
 40
0
 41
0
  0
VERTEX
  8
0
 10
3.73068
 20
2.16846
 30
0.0
 40
0
 41
0
  0
VERTEX
  8
0
 10
3.77001
 20
1.97157
 30
0.0
 40
0
 41
0
  0
VERTEX
  8
0
 10
3.78353
 20
1.81782
 30
0.0
 40
0
 41
0
  0
VERTEX
  8
0
 10
3.78353
 20
1.76654
 30
0.0
 40
0
 41
0
  0
VERTEX
  8
0
 10
3.78353
 20
1.71724
 30
0.0
 40
0
 41
0
  0
VERTEX
  8
0
 10
3.771
 20
1.56917
 30
0.0
 40
0
 41
0
  0
VERTEX
  8
0
 10
3.74251
 20
1.4101
 30
0.0
 40
0
 41
0
  0
VERTEX
  8
0
 10
3.73454
 20
1.37912
 30
0.0
 40
0
 41
0
  0
VERTEX
  8
0
 10
3.73253
 20
1.37956
 30
0.0
 40
0
 41
0
  0
VERTEX
  8
0
 10
3.71565
 20
1.38184
 30
0.0
 40
0
 41
0
  0
VERTEX
  8
0
 10
3.71007
 20
1.38184
 30
0.0
 40
0
 41
0
  0
VERTEX
  8
0
 10
3.68201
 20
1.38184
 30
0.0
 40
0
 41
0
  0
VERTEX
  8
0
 10
3.59799
 20
1.36789
 30
0.0
 40
0
 41
0
  0
VERTEX
  8
0
 10
3.51004
 20
1.33263
 30
0.0
 40
0
 41
0
  0
VERTEX
  8
0
 10
3.44125
 20
1.28597
 30
0.0
 40
0
 41
0
  0
VERTEX
  8
0
 10
3.3999
 20
1.25016
 30
0.0
 40
0
 41
0
  0
VERTEX
  8
0
 10
3.38656
 20
1.23779
 30
0.0
 40
0
 41
0
  0
VERTEX
  8
0
 10
3.3769
 20
1.2289
 30
0.0
 40
0
 41
0
  0
VERTEX
  8
0
 10
3.34739
 20
1.20275
 30
0.0
 40
0
 41
0
  0
VERTEX
  8
0
 10
3.31033
 20
1.17649
 30
0.0
 40
0
 41
0
  0
VERTEX
  8
0
 10
3.2691
 20
1.15994
 30
0.0
 40
0
 41
0
  0
VERTEX
  8
0
 10
3.23036
 20
1.15419
 30
0.0
 40
0
 41
0
  0
VERTEX
  8
0
 10
3.2175
 20
1.15419
 30
0.0
 40
0
 41
0
  0
VERTEX
  8
0
 10
3.20458
 20
1.15419
 30
0.0
 40
0
 41
0
  0
VERTEX
  8
0
 10
3.16585
 20
1.15994
 30
0.0
 40
0
 41
0
  0
VERTEX
  8
0
 10
3.12463
 20
1.17649
 30
0.0
 40
0
 41
0
  0
VERTEX
  8
0
 10
3.08757
 20
1.20275
 30
0.0
 40
0
 41
0
  0
VERTEX
  8
0
 10
3.05806
 20
1.2289
 30
0.0
 40
0
 41
0
  0
VERTEX
  8
0
 10
3.04844
 20
1.23779
 30
0.0
 40
0
 41
0
  0
VERTEX
  8
0
 10
3.03504
 20
1.25016
 30
0.0
 40
0
 41
0
  0
VERTEX
  8
0
 10
2.99371
 20
1.28597
 30
0.0
 40
0
 41
0
  0
VERTEX
  8
0
 10
2.92486
 20
1.33263
 30
0.0
 40
0
 41
0
  0
VERTEX
  8
0
 10
2.83692
 20
1.36789
 30
0.0
 40
0
 41
0
  0
VERTEX
  8
0
 10
2.75288
 20
1.38184
 30
0.0
 40
0
 41
0
  0
VERTEX
  8
0
 10
2.72487
 20
1.38184
 30
0.0
 40
0
 41
0
  0
VERTEX
  8
0
 10
2.69683
 20
1.38184
 30
0.0
 40
0
 41
0
  0
VERTEX
  8
0
 10
2.61285
 20
1.36789
 30
0.0
 40
0
 41
0
  0
VERTEX
  8
0
 10
2.5249
 20
1.33263
 30
0.0
 40
0
 41
0
  0
VERTEX
  8
0
 10
2.45606
 20
1.28597
 30
0.0
 40
0
 41
0
  0
VERTEX
  8
0
 10
2.41471
 20
1.25016
 30
0.0
 40
0
 41
0
  0
VERTEX
  8
0
 10
2.40136
 20
1.23779
 30
0.0
 40
0
 41
0
  0
VERTEX
  8
0
 10
2.39171
 20
1.2289
 30
0.0
 40
0
 41
0
  0
VERTEX
  8
0
 10
2.36219
 20
1.20275
 30
0.0
 40
0
 41
0
  0
VERTEX
  8
0
 10
2.32519
 20
1.17649
 30
0.0
 40
0
 41
0
  0
VERTEX
  8
0
 10
2.28396
 20
1.15994
 30
0.0
 40
0
 41
0
  0
VERTEX
  8
0
 10
2.24522
 20
1.15419
 30
0.0
 40
0
 41
0
  0
VERTEX
  8
0
 10
2.23236
 20
1.15419
 30
0.0
 40
0
 41
0
  0
VERTEX
  8
0
 10
2.21946
 20
1.15419
 30
0.0
 40
0
 41
0
  0
VERTEX
  8
0
 10
2.18072
 20
1.15994
 30
0.0
 40
0
 41
0
  0
VERTEX
  8
0
 10
2.13954
 20
1.17649
 30
0.0
 40
0
 41
0
  0
VERTEX
  8
0
 10
2.10249
 20
1.20275
 30
0.0
 40
0
 41
0
  0
VERTEX
  8
0
 10
2.07297
 20
1.2289
 30
0.0
 40
0
 41
0
  0
VERTEX
  8
0
 10
2.06338
 20
1.23779
 30
0.0
 40
0
 41
0
  0
VERTEX
  8
0
 10
2.04997
 20
1.25016
 30
0.0
 40
0
 41
0
  0
VERTEX
  8
0
 10
2.00863
 20
1.28597
 30
0.0
 40
0
 41
0
  0
VERTEX
  8
0
 10
1.93983
 20
1.33263
 30
0.0
 40
0
 41
0
  0
VERTEX
  8
0
 10
1.85189
 20
1.36789
 30
0.0
 40
0
 41
0
  0
VERTEX
  8
0
 10
1.76785
 20
1.38184
 30
0.0
 40
0
 41
0
  0
VERTEX
  8
0
 10
1.73986
 20
1.38184
 30
0.0
 40
0
 41
0
  0
VERTEX
  8
0
 10
1.71181
 20
1.38184
 30
0.0
 40
0
 41
0
  0
VERTEX
  8
0
 10
1.62782
 20
1.36789
 30
0.0
 40
0
 41
0
  0
VERTEX
  8
0
 10
1.53988
 20
1.33263
 30
0.0
 40
0
 41
0
  0
VERTEX
  8
0
 10
1.47103
 20
1.28597
 30
0.0
 40
0
 41
0
  0
VERTEX
  8
0
 10
1.42969
 20
1.25016
 30
0.0
 40
0
 41
0
  0
VERTEX
  8
0
 10
1.41635
 20
1.23779
 30
0.0
 40
0
 41
0
  0
VERTEX
  8
0
 10
1.40668
 20
1.2289
 30
0.0
 40
0
 41
0
  0
VERTEX
  8
0
 10
1.37717
 20
1.20275
 30
0.0
 40
0
 41
0
  0
VERTEX
  8
0
 10
1.34017
 20
1.17649
 30
0.0
 40
0
 41
0
  0
VERTEX
  8
0
 10
1.29894
 20
1.15994
 30
0.0
 40
0
 41
0
  0
VERTEX
  8
0
 10
1.2602
 20
1.15419
 30
0.0
 40
0
 41
0
  0
VERTEX
  8
0
 10
1.24734
 20
1.15419
 30
0.0
 40
0
 41
0
  0
VERTEX
  8
0
 10
1.23443
 20
1.15419
 30
0.0
 40
0
 41
0
  0
VERTEX
  8
0
 10
1.19569
 20
1.15994
 30
0.0
 40
0
 41
0
  0
VERTEX
  8
0
 10
1.15451
 20
1.17649
 30
0.0
 40
0
 41
0
  0
VERTEX
  8
0
 10
1.11746
 20
1.20275
 30
0.0
 40
0
 41
0
  0
VERTEX
  8
0
 10
1.08794
 20
1.2289
 30
0.0
 40
0
 41
0
  0
VERTEX
  8
0
 10
1.07834
 20
1.23779
 30
0.0
 40
0
 41
0
  0
VERTEX
  8
0
 10
1.06494
 20
1.25016
 30
0.0
 40
0
 41
0
  0
VERTEX
  8
0
 10
1.0236
 20
1.28597
 30
0.0
 40
0
 41
0
  0
VERTEX
  8
0
 10
0.954807
 20
1.33263
 30
0.0
 40
0
 41
0
  0
VERTEX
  8
0
 10
0.866863
 20
1.36789
 30
0.0
 40
0
 41
0
  0
VERTEX
  8
0
 10
0.782824
 20
1.38184
 30
0.0
 40
0
 41
0
  0
VERTEX
  8
0
 10
0.754829
 20
1.38184
 30
0.0
 40
0
 41
0
  0
VERTEX
  8
0
 10
0.748699
 20
1.38184
 30
0.0
 40
0
 41
0
  0
VERTEX
  8
0
 10
0.732368
 20
1.37956
 30
0.0
 40
0
 41
0
  0
VERTEX
  8
0
 10
0.730414
 20
1.37912
 30
0.0
 40
0
 41
0
  0
VERTEX
  8
0
 10
0.722385
 20
1.4101
 30
0.0
 40
0
 41
0
  0
VERTEX
  8
0
 10
0.693901
 20
1.56917
 30
0.0
 40
0
 41
0
  0
VERTEX
  8
0
 10
0.681424
 20
1.71724
 30
0.0
 40
0
 41
0
  0
VERTEX
  8
0
 10
0.681424
 20
1.76654
 30
0.0
 40
0
 41
0
  0
VERTEX
  8
0
 10
0.681424
 20
1.81782
 30
0.0
 40
0
 41
0
  0
VERTEX
  8
0
 10
0.694933
 20
1.97157
 30
0.0
 40
0
 41
0
  0
VERTEX
  8
0
 10
0.734267
 20
2.16851
 30
0.0
 40
0
 41
0
  0
VERTEX
  8
0
 10
0.797689
 20
2.35568
 30
0.0
 40
0
 41
0
  0
VERTEX
  8
0
 10
0.859375
 20
2.48893
 30
0.0
 40
0
 41
0
  0
VERTEX
  8
0
 10
0.883518
 20
2.53131
 30
0.0
 40
0
 41
0
  0
SEQEND
 8
0
  0
POLYLINE
  8
0
 62
     0
 66
     1
 10
0
 20
0
 30
0.0
 70
     1
 40
0
 41
0
  0
VERTEX
  8
0
 10
2.23247
 20
0.215549
 30
0.0
 40
0
 41
0
  0
VERTEX
  8
0
 10
2.17404
 20
0.215549
 30
0.0
 40
0
 41
0
  0
VERTEX
  8
0
 10
1.99881
 20
0.233128
 30
0.0
 40
0
 41
0
  0
VERTEX
  8
0
 10
1.77599
 20
0.284125
 30
0.0
 40
0
 41
0
  0
VERTEX
  8
0
 10
1.56657
 20
0.36594
 30
0.0
 40
0
 41
0
  0
VERTEX
  8
0
 10
1.37316
 20
0.476019
 30
0.0
 40
0
 41
0
  0
VERTEX
  8
0
 10
1.19824
 20
0.611763
 30
0.0
 40
0
 41
0
  0
VERTEX
  8
0
 10
1.04449
 20
0.770617
 30
0.0
 40
0
 41
0
  0
VERTEX
  8
0
 10
0.914387
 20
0.949978
 30
0.0
 40
0
 41
0
  0
VERTEX
  8
0
 10
0.832844
 20
1.09641
 30
0.0
 40
0
 41
0
  0
VERTEX
  8
0
 10
0.810601
 20
1.1473
 30
0.0
 40
0
 41
0
  0
VERTEX
  8
0
 10
0.821343
 20
1.14437
 30
0.0
 40
0
 41
0
  0
VERTEX
  8
0
 10
0.868001
 20
1.11876
 30
0.0
 40
0
 41
0
  0
VERTEX
  8
0
 10
0.913629
 20
1.08013
 30
0.0
 40
0
 41
0
  0
VERTEX
  8
0
 10
0.923882
 20
1.07064
 30
0.0
 40
0
 41
0
  0
VERTEX
  8
0
 10
0.937229
 20
1.05832
 30
0.0
 40
0
 41
0
  0
VERTEX
  8
0
 10
0.978569
 20
1.02252
 30
0.0
 40
0
 41
0
  0
VERTEX
  8
0
 10
1.04742
 20
0.975857
 30
0.0
 40
0
 41
0
  0
VERTEX
  8
0
 10
1.13536
 20
0.940593
 30
0.0
 40
0
 41
0
  0
VERTEX
  8
0
 10
1.21935
 20
0.926594
 30
0.0
 40
0
 41
0
  0
VERTEX
  8
0
 10
1.2474
 20
0.926594
 30
0.0
 40
0
 41
0
  0
VERTEX
  8
0
 10
1.27539
 20
0.926594
 30
0.0
 40
0
 41
0
  0
VERTEX
  8
0
 10
1.35943
 20
0.940593
 30
0.0
 40
0
 41
0
  0
VERTEX
  8
0
 10
1.44737
 20
0.975857
 30
0.0
 40
0
 41
0
  0
VERTEX
  8
0
 10
1.51617
 20
1.02252
 30
0.0
 40
0
 41
0
  0
VERTEX
  8
0
 10
1.55751
 20
1.05832
 30
0.0
 40
0
 41
0
  0
VERTEX
  8
0
 10
1.5709
 20
1.07064
 30
0.0
 40
0
 41
0
  0
VERTEX
  8
0
 10
1.58051
 20
1.07959
 30
0.0
 40
0
 41
0
  0
VERTEX
  8
0
 10
1.61003
 20
1.10574
 30
0.0
 40
0
 41
0
  0
VERTEX
  8
0
 10
1.64708
 20
1.132
 30
0.0
 40
0
 41
0
  0
VERTEX
  8
0
 10
1.68826
 20
1.14849
 30
0.0
 40
0
 41
0
  0
VERTEX
  8
0
 10
1.727
 20
1.15419
 30
0.0
 40
0
 41
0
  0
VERTEX
  8
0
 10
1.7399
 20
1.15419
 30
0.0
 40
0
 41
0
  0
VERTEX
  8
0
 10
1.75276
 20
1.15419
 30
0.0
 40
0
 41
0
  0
VERTEX
  8
0
 10
1.7915
 20
1.14849
 30
0.0
 40
0
 41
0
  0
VERTEX
  8
0
 10
1.83268
 20
1.13194
 30
0.0
 40
0
 41
0
  0
VERTEX
  8
0
 10
1.86974
 20
1.10569
 30
0.0
 40
0
 41
0
  0
VERTEX
  8
0
 10
1.89925
 20
1.07959
 30
0.0
 40
0
 41
0
  0
VERTEX
  8
0
 10
1.9089
 20
1.07064
 30
0.0
 40
0
 41
0
  0
VERTEX
  8
0
 10
1.92225
 20
1.05832
 30
0.0
 40
0
 41
0
  0
VERTEX
  8
0
 10
1.9636
 20
1.02252
 30
0.0
 40
0
 41
0
  0
VERTEX
  8
0
 10
2.03244
 20
0.975857
 30
0.0
 40
0
 41
0
  0
VERTEX
  8
0
 10
2.12039
 20
0.940593
 30
0.0
 40
0
 41
0
  0
VERTEX
  8
0
 10
2.20437
 20
0.926594
 30
0.0
 40
0
 41
0
  0
VERTEX
  8
0
 10
2.23242
 20
0.926594
 30
0.0
 40
0
 41
0
  0
VERTEX
  8
0
 10
2.26042
 20
0.926594
 30
0.0
 40
0
 41
0
  0
VERTEX
  8
0
 10
2.34446
 20
0.940593
 30
0.0
 40
0
 41
0
  0
VERTEX
  8
0
 10
2.4324
 20
0.975857
 30
0.0
 40
0
 41
0
  0
VERTEX
  8
0
 10
2.50119
 20
1.02252
 30
0.0
 40
0
 41
0
  0
VERTEX
  8
0
 10
2.54254
 20
1.05832
 30
0.0
 40
0
 41
0
  0
VERTEX
  8
0
 10
2.55593
 20
1.07064
 30
0.0
 40
0
 41
0
  0
VERTEX
  8
0
 10
2.56554
 20
1.07959
 30
0.0
 40
0
 41
0
  0
VERTEX
  8
0
 10
2.59506
 20
1.10574
 30
0.0
 40
0
 41
0
  0
VERTEX
  8
0
 10
2.63211
 20
1.132
 30
0.0
 40
0
 41
0
  0
VERTEX
  8
0
 10
2.67329
 20
1.14849
 30
0.0
 40
0
 41
0
  0
VERTEX
  8
0
 10
2.71203
 20
1.15419
 30
0.0
 40
0
 41
0
  0
VERTEX
  8
0
 10
2.72493
 20
1.15419
 30
0.0
 40
0
 41
0
  0
VERTEX
  8
0
 10
2.73779
 20
1.15419
 30
0.0
 40
0
 41
0
  0
VERTEX
  8
0
 10
2.77653
 20
1.14849
 30
0.0
 40
0
 41
0
  0
VERTEX
  8
0
 10
2.81776
 20
1.13194
 30
0.0
 40
0
 41
0
  0
VERTEX
  8
0
 10
2.85482
 20
1.10569
 30
0.0
 40
0
 41
0
  0
VERTEX
  8
0
 10
2.88433
 20
1.07959
 30
0.0
 40
0
 41
0
  0
VERTEX
  8
0
 10
2.89399
 20
1.07064
 30
0.0
 40
0
 41
0
  0
VERTEX
  8
0
 10
2.90733
 20
1.05832
 30
0.0
 40
0
 41
0
  0
VERTEX
  8
0
 10
2.94868
 20
1.02252
 30
0.0
 40
0
 41
0
  0
VERTEX
  8
0
 10
3.01753
 20
0.975857
 30
0.0
 40
0
 41
0
  0
VERTEX
  8
0
 10
3.10547
 20
0.940593
 30
0.0
 40
0
 41
0
  0
VERTEX
  8
0
 10
3.18951
 20
0.926594
 30
0.0
 40
0
 41
0
  0
VERTEX
  8
0
 10
3.21756
 20
0.926594
 30
0.0
 40
0
 41
0
  0
VERTEX
  8
0
 10
3.24556
 20
0.926594
 30
0.0
 40
0
 41
0
  0
VERTEX
  8
0
 10
3.32958
 20
0.940593
 30
0.0
 40
0
 41
0
  0
VERTEX
  8
0
 10
3.41754
 20
0.975857
 30
0.0
 40
0
 41
0
  0
VERTEX
  8
0
 10
3.48633
 20
1.02252
 30
0.0
 40
0
 41
0
  0
VERTEX
  8
0
 10
3.52767
 20
1.05832
 30
0.0
 40
0
 41
0
  0
VERTEX
  8
0
 10
3.54107
 20
1.07064
 30
0.0
 40
0
 41
0
  0
VERTEX
  8
0
 10
3.55132
 20
1.08013
 30
0.0
 40
0
 41
0
  0
VERTEX
  8
0
 10
3.59694
 20
1.11876
 30
0.0
 40
0
 41
0
  0
VERTEX
  8
0
 10
3.64361
 20
1.14437
 30
0.0
 40
0
 41
0
  0
VERTEX
  8
0
 10
3.6544
 20
1.1473
 30
0.0
 40
0
 41
0
  0
VERTEX
  8
0
 10
3.63211
 20
1.09641
 30
0.0
 40
0
 41
0
  0
VERTEX
  8
0
 10
3.55057
 20
0.949978
 30
0.0
 40
0
 41
0
  0
VERTEX
  8
0
 10
3.42046
 20
0.770617
 30
0.0
 40
0
 41
0
  0
VERTEX
  8
0
 10
3.26665
 20
0.611763
 30
0.0
 40
0
 41
0
  0
VERTEX
  8
0
 10
3.09179
 20
0.476019
 30
0.0
 40
0
 41
0
  0
VERTEX
  8
0
 10
2.89833
 20
0.36594
 30
0.0
 40
0
 41
0
  0
VERTEX
  8
0
 10
2.68892
 20
0.284125
 30
0.0
 40
0
 41
0
  0
VERTEX
  8
0
 10
2.4661
 20
0.233128
 30
0.0
 40
0
 41
0
  0
VERTEX
  8
0
 10
2.29085
 20
0.215549
 30
0.0
 40
0
 41
0
  0
VERTEX
  8
0
 10
2.23247
 20
0.215549
 30
0.0
 40
0
 41
0
  0
SEQEND
 8
0
  0
ENDSEC
  0
EOF
